<svg width="20" height="20" viewBox="0 0 20 20" fill="none" xmlns="http://www.w3.org/2000/svg">
<path d="M2.5 5H4.16667H17.5" stroke="#5B5B5B" stroke-width="2" stroke-linecap="round" stroke-linejoin="round"/>
<path d="M6.66663 5.00008V3.33341C6.66663 2.89139 6.84222 2.46746 7.15478 2.1549C7.46734 1.84234 7.89127 1.66675 8.33329 1.66675H11.6666C12.1087 1.66675 12.5326 1.84234 12.8451 2.1549C13.1577 2.46746 13.3333 2.89139 13.3333 3.33341V5.00008M15.8333 5.00008V16.6667C15.8333 17.1088 15.6577 17.5327 15.3451 17.8453C15.0326 18.1578 14.6087 18.3334 14.1666 18.3334H5.83329C5.39127 18.3334 4.96734 18.1578 4.65478 17.8453C4.34222 17.5327 4.16663 17.1088 4.16663 16.6667V5.00008H15.8333Z" stroke="#5B5B5B" stroke-width="2" stroke-linecap="round" stroke-linejoin="round"/>
<path d="M8.33337 9.16675V14.1667" stroke="#5B5B5B" stroke-width="2" stroke-linecap="round" stroke-linejoin="round"/>
<path d="M11.6666 9.16675V14.1667" stroke="#5B5B5B" stroke-width="2" stroke-linecap="round" stroke-linejoin="round"/>
</svg>
